<svg data-v-0dd9719b="" version="1.0" xmlns="http://www.w3.org/2000/svg" xmlns:xlink="http://www.w3.org/1999/xlink" width="100%" height="100%" viewBox="0 0 340.000000 250.000000" preserveAspectRatio="xMidYMid meet" color-interpolation-filters="sRGB" style="margin: auto;"> <rect data-v-0dd9719b="" x="0" y="0" width="100%" height="100%" fill="#fff" fill-opacity="1" class="background"></rect> <rect data-v-0dd9719b="" x="0" y="0" width="100%" height="100%" fill="url(#watermark)" fill-opacity="1" class="watermarklayer"></rect> <g data-v-0dd9719b="" fill="#000000" class="icon-text-wrapper icon-svg-group iconsvg" transform="translate(48.875,95)"><g class="iconsvg-imagesvg" transform="translate(0,0)"><g><rect fill="#000000" fill-opacity="0" stroke-width="2" x="0" y="0" width="60" height="60" class="image-rect"></rect> <svg x="0" y="0" width="60" height="60" filtersec="colorsb9728191787" class="image-svg-svg primary" style="overflow: visible;"><svg fill="#000000" xmlns="http://www.w3.org/2000/svg" xmlns:xlink="http://www.w3.org/1999/xlink" version="1.0" x="0px" y="0px" viewBox="10 10 80 80" enable-background="new 0 0 100 100" xml:space="preserve"><path d="M43.333,53.333l13.334-0.003c13.304,0,24.752-7.815,30.101-19.085c-1.155-2.695-2.624-5.218-4.316-7.569  C79.473,38.151,69.06,46.663,56.667,46.663l-13.334,0.004c-12.451,0-23.753,4.932-32.132,12.91c0.603,2.435,1.416,4.785,2.438,7.021  C20.96,58.474,31.536,53.333,43.333,53.333z"></path><path d="M89.353,43.008C82.109,53.274,70.183,60,56.667,60H43.333c-10.641,0-20.094,5.003-26.197,12.771  c1.309,1.885,2.77,3.655,4.375,5.286c4.827-6.875,12.803-11.39,21.822-11.39h13.334c12.979,0,24.727-5.336,33.193-13.92  C89.922,51.836,90,50.928,90,50C90,47.61,89.753,45.283,89.353,43.008z"></path><path d="M43.333,33.333c-12.061,0-23.277,3.607-32.695,9.756C10.244,45.339,10,47.637,10,50c0,0.573,0.062,1.133,0.088,1.699  C19.212,44.395,30.762,40,43.333,40l13.334-0.003c10.947,0,19.856-8.845,19.986-19.763c-2.041-1.83-4.264-3.457-6.653-4.838v4.598  c0,7.354-5.979,13.336-13.333,13.336L43.333,33.333z"></path><path d="M43.333,26.666l13.334-0.002c3.675,0,6.666-2.992,6.666-6.67v-7.67C59.157,10.846,54.685,10,50,10  c-16.328,0-30.352,9.801-36.565,23.831C22.438,29.283,32.575,26.666,43.333,26.666z"></path><path d="M56.667,73.333H43.333c-6.992,0-13.147,3.613-16.725,9.066C33.19,87.161,41.257,90,50,90  c17.425,0,32.204-11.159,37.688-26.706C78.938,69.587,68.242,73.333,56.667,73.333z"></path></svg></svg> <!----></g></g> <g transform="translate(67,5.488750457763672)"><g data-gra="path-name" fill-rule="" class="tp-name iconsvg-namesvg" transform="translate(0,0)"><g transform="scale(1)"><g><path d="M24.4-13.25Q26.72-16.31 28.79-20.57L28.79-20.57Q29-21.06 29.6-20.92L29.6-20.92 29.64-20.92 29.67-20.88Q30.23-20.64 30.13-20.04L30.13-20.04 30.09-19.93Q27.98-15.61 25.31-12.02L25.31-12.02 25.28-11.95Q28.05-7.88 32.59-4.39L32.59-4.39Q33.64-3.59 33.61-4.82L33.61-4.82 33.61-4.92 33.29-12.8Q33.29-13.32 33.86-13.43L33.86-13.43 33.96-13.43Q34.56-13.46 34.7-12.97L34.7-12.97 34.73-12.94 34.73-12.83 35.05-4.96 35.05-4.54Q35.05-2.14 33.96-2.14L33.96-2.14Q33.15-2.14 31.71-3.23L31.71-3.23Q27.25-6.61 24.29-10.76L24.29-10.76Q19.76-5.2 13.99-2.43L13.99-2.43Q13.46-2.18 13.18-2.67L13.18-2.67 13.18-2.71 13.15-2.74Q12.83-3.41 13.36-3.69L13.36-3.69 13.39-3.69Q19.2-6.61 23.48-12.02L23.48-12.02Q19.93-17.54 18.63-25.03L18.63-25.03 7.66-25.03Q6.64-25.03 6.33-24.08L6.33-24.08 6.22-23.59 6.12-20.88 12.23-20.88Q13.85-20.88 14.73-19.48L14.73-19.48Q15.12-18.81 15.12-18.04L15.12-18.04 15.12-18Q15.05-9.49 14.41-7.52L14.41-7.52Q13.57-4.11 8.47-5.31L8.47-5.31Q7.91-5.41 7.88-5.91L7.88-5.91 7.88-6.01Q7.91-6.61 8.47-6.71L8.47-6.71 8.61-6.71Q12.48-6.08 13.04-7.95L13.04-7.95Q13.61-9.7 13.68-18L13.68-18Q13.68-19.02 12.73-19.34L12.73-19.34 12.23-19.44 6.05-19.44Q5.38-9.14 2.29-1.69L2.29-1.69 2.29-1.65Q2.11-1.27 1.72-1.27L1.72-1.27Q1.62-1.27 1.48-1.3L1.48-1.3 1.41-1.34Q0.88-1.58 0.88-1.97L0.88-1.97Q0.88-2.04 0.91-2.14L0.91-2.14 0.95-2.21Q4.54-10.86 4.78-23.59L4.78-23.59Q4.78-25.21 6.19-26.05L6.19-26.05Q6.89-26.47 7.66-26.47L7.66-26.47 18.42-26.47Q17.96-29.81 17.86-34.03L17.86-34.03Q17.86-34.56 18.39-34.66L18.39-34.66 18.49-34.66Q19.16-34.66 19.27-34.17L19.27-34.17 19.3-34.14 19.3-34.03Q19.41-29.71 19.9-26.47L19.9-26.47 34-26.47Q34.45-26.47 34.59-25.95L34.59-25.95Q34.63-25.91 34.63-25.84L34.63-25.84 34.63-25.8Q34.63-25.14 34.1-25.03L34.1-25.03 20.11-25.03Q21.34-18.32 24.4-13.25L24.4-13.25ZM23.59-32.59L23.59-32.59Q23.03-32.94 23.38-33.47L23.38-33.47Q23.8-34.1 24.26-33.86L24.26-33.86 24.33-33.82Q27.84-31.68 30.16-28.55L30.16-28.55 30.2-28.51Q30.55-28.05 30.09-27.63L30.09-27.63 30.06-27.6Q29.5-27.21 29.04-27.6L29.04-27.6 29-27.67Q26.86-30.55 23.59-32.59ZM55.76-9L42.29-9 42.29-6.01Q42.29-4.99 43.24-4.68L43.24-4.68 43.24-4.64 43.73-4.57 54.21-4.57Q55.23-4.57 55.58-5.52L55.58-5.52 55.69-6.01 55.76-9ZM42.29-10.44L55.79-10.44 55.83-12.73Q55.86-13.68 55.02-14.06L55.02-14.06 54.42-14.17 43.73-14.17Q42.71-14.17 42.36-13.25L42.36-13.25 42.29-12.73 42.29-10.44ZM49.75-23.94L51.93-23.94Q54.88-26.96 57.41-30.62L57.41-30.62Q57.69-31.18 58.29-30.87L58.29-30.87 58.32-30.83Q58.85-30.48 58.64-29.95L58.64-29.95 58.64-29.92 58.61-29.85Q56.21-26.47 53.89-23.94L53.89-23.94 61.91-23.94 61.91-30.02Q61.91-31.64 63.32-32.52L63.32-32.52Q64.02-32.91 64.79-32.91L64.79-32.91 67.57-32.91Q69.22-32.91 69.71-31.54L69.71-31.54Q70-30.87 69.79-30.02L69.79-30.02Q68.52-25.84 66.8-22.54L66.8-22.54Q66.2-21.55 66.83-20.53L66.83-20.53 66.87-20.5 67.08-20.18Q70.49-16.1 71.16-12.2L71.16-12.2Q71.3-11.57 71.3-10.97L71.3-10.97 71.3-10.76Q71.3-5.84 66.8-5.13L66.8-5.13Q66.23-5.06 66.09-5.66L66.09-5.66Q66.06-5.73 66.06-5.77L66.06-5.77Q65.99-6.43 66.52-6.57L66.52-6.57 66.62-6.57Q69.93-7.38 69.86-10.97L69.86-10.97Q69.82-14.06 67.04-17.96L67.04-17.96 66.3-18.91Q65-20.21 65.29-22.22L65.29-22.22Q65.32-22.36 65.32-22.5L65.32-22.5 65.36-22.57Q65.46-23.1 65.74-23.59L65.74-23.59Q67.04-26.12 68.31-30.02L68.31-30.02Q68.55-30.97 67.71-31.36L67.71-31.36 67.18-31.46 64.79-31.46Q63.81-31.46 63.46-30.52L63.46-30.52 63.35-30.02 63.35-2Q63.35-1.48 62.82-1.37L62.82-1.37 62.72-1.37Q62.05-1.37 61.95-1.86L61.95-1.86 61.91-2 61.91-22.5 52.52-22.5Q48.45-18.42 43.84-15.64L43.84-15.64 43.8-15.61 54.46-15.61Q56.07-15.61 56.92-14.2L56.92-14.2Q57.27-13.54 57.27-12.73L57.27-12.73 57.13-6.01Q57.09-4.36 55.62-3.52L55.62-3.52Q54.95-3.13 54.18-3.13L54.18-3.13 43.73-3.13Q42.05-3.13 41.2-4.61L41.2-4.61Q40.85-5.2 40.85-5.98L40.85-5.98 40.85-12.73Q40.85-13.54 41.2-14.1L41.2-14.1 38.29-12.69Q37.76-12.48 37.48-13.04L37.48-13.04 37.44-13.08Q37.34-13.32 37.34-13.5L37.34-13.5Q37.34-13.85 37.69-14.03L37.69-14.03 37.72-14.03Q44.86-17.19 50.45-22.5L50.45-22.5 37.97-22.5Q37.44-22.5 37.34-23.03L37.34-23.03 37.34-23.13Q37.34-23.8 37.83-23.91L37.83-23.91 37.97-23.94 48.3-23.94 48.3-28.02 41.27-28.02Q40.71-28.02 40.61-28.55L40.61-28.55 40.61-28.65Q40.61-29.32 41.1-29.43L41.1-29.43 41.27-29.46 48.3-29.46 48.3-34.03Q48.3-34.56 48.87-34.66L48.87-34.66 48.97-34.66Q49.61-34.66 49.71-34.17L49.71-34.17 49.75-34.14 49.75-29.46 54.63-29.46Q55.2-29.46 55.3-28.9L55.3-28.9 55.3-28.79Q55.3-28.16 54.81-28.05L54.81-28.05 54.77-28.02 49.75-28.02 49.75-23.94ZM85.08-13.46Q85.04-15.08 86.45-15.96L86.45-15.96Q87.12-16.35 87.93-16.35L87.93-16.35 98.58-16.35Q100.23-16.35 101.04-14.87L101.04-14.87Q101.43-14.27 101.43-13.5L101.43-13.5 101.43-13.46 101.39-6.01Q101.39-4.39 99.98-3.52L99.98-3.52Q99.28-3.13 98.51-3.13L98.51-3.13 88.03-3.13Q86.41-3.13 85.54-4.54L85.54-4.54Q85.15-5.2 85.15-5.98L85.15-5.98 85.15-6.01 85.08-13.46ZM99.98-13.46Q99.98-14.48 99.04-14.8L99.04-14.8 98.54-14.91 87.93-14.91Q86.94-14.91 86.63-14.03L86.63-14.03 86.52-13.46 86.59-6.01Q86.59-4.99 87.5-4.68L87.5-4.68 88.03-4.57 98.51-4.57Q99.49-4.57 99.84-5.52L99.84-5.52 99.95-6.01 99.98-13.46ZM92.53-27.98L85.25-27.98Q84.06-25.52 82.16-23.52L82.16-23.52Q81.77-23.1 81.28-23.48L81.28-23.48 81.21-23.52Q80.75-23.98 81.11-24.43L81.11-24.43 81.14-24.5Q84.34-27.95 85.29-32.77L85.29-32.77Q85.39-33.36 86.03-33.29L86.03-33.29Q86.66-33.19 86.73-32.7L86.73-32.7 86.73-32.55Q86.41-30.94 85.85-29.43L85.85-29.43 92.53-29.43 92.53-34.03Q92.53-34.56 93.06-34.66L93.06-34.66 93.16-34.66Q93.83-34.66 93.94-34.17L93.94-34.17 93.97-34.14 93.97-29.43 103.08-29.43Q103.61-29.43 103.71-28.86L103.71-28.86 103.71-28.76Q103.71-28.13 103.22-28.02L103.22-28.02 103.18-27.98 93.97-27.98 93.97-22.39 106-22.39Q106.52-22.39 106.63-21.87L106.63-21.87 106.63-21.73Q106.63-21.06 106.1-20.95L106.1-20.95 80.58-20.95Q80.02-20.95 79.91-21.48L79.91-21.48 79.91-21.59Q79.91-22.25 80.44-22.36L80.44-22.36 80.58-22.39 92.53-22.39 92.53-27.98ZM75.87-2.78L75.83-2.71Q75.62-2.43 75.38-2.43L75.38-2.43Q75.16-2.43 74.95-2.57L74.95-2.57 74.88-2.6Q74.32-3.06 74.6-3.52L74.6-3.52 74.64-3.55Q78.79-9.21 82.3-14.77L82.3-14.77Q82.58-15.29 83.18-14.98L83.18-14.98Q83.78-14.59 83.57-14.06L83.57-14.06 83.53-13.99Q80.33-9 75.87-2.78L75.87-2.78ZM76.43-33.57Q75.94-33.96 76.32-34.49L76.32-34.49Q76.57-34.88 76.89-34.88L76.89-34.88Q77.03-34.88 77.2-34.77L77.2-34.77 77.31-34.73Q79.84-32.77 81.46-30.16L81.46-30.16Q81.7-29.6 81.21-29.29L81.21-29.29Q80.58-28.9 80.23-29.43L80.23-29.43 80.19-29.46Q78.71-31.85 76.43-33.57L76.43-33.57ZM73.3-24.82L73.3-24.82Q73.02-25.03 73.02-25.28L73.02-25.28Q73.02-25.45 73.2-25.7L73.2-25.7Q73.65-26.33 74.18-25.91L74.18-25.91Q76.75-23.94 78.5-21.06L78.5-21.06 78.54-21.02Q78.86-20.5 78.33-20.14L78.33-20.14 78.29-20.11Q77.66-19.76 77.34-20.29L77.34-20.29 77.31-20.32Q75.69-22.92 73.3-24.82ZM132.89-19.72L121.68-19.72Q120.38-16.14 118.93-13.11L118.93-13.11Q119.11-13.18 119.32-13.15L119.32-13.15 119.39-13.15Q123.33-11.92 126.84-10.23L126.84-10.23 126.88-10.23Q130.85-14.2 132.89-19.69L132.89-19.69 132.89-19.72ZM113.63-30.13L125.16-30.13 125.16-34.03Q125.16-34.56 125.72-34.66L125.72-34.66 125.82-34.66Q126.46-34.66 126.56-34.17L126.56-34.17 126.6-34.14 126.6-30.13 138.9-30.13Q140.59-30.13 141.4-28.65L141.4-28.65Q141.79-28.05 141.79-27.28L141.79-27.28 141.79-24.29Q141.79-23.77 141.22-23.66L141.22-23.66 141.12-23.66Q140.48-23.66 140.38-24.15L140.38-24.15 140.34-24.19 140.34-27.25Q140.34-28.27 139.39-28.58L139.39-28.58 138.9-28.69 124.28-28.69 124.24-28.62Q123.4-24.93 122.17-21.16L122.17-21.16 142-21.16Q142.52-21.16 142.63-20.64L142.63-20.64 142.63-20.53Q142.63-19.86 142.14-19.76L142.14-19.76 142.1-19.72 134.44-19.72Q132.36-13.85 128.18-9.56L128.18-9.56Q133.35-6.89 137.81-3.09L137.81-3.09Q138.2-2.71 137.88-2.21L137.88-2.21 137.85-2.14Q137.36-1.58 136.83-1.97L136.83-1.97Q132.36-5.8 127.16-8.47L127.16-8.47 127.13-8.51Q121.46-3.38 112.5-0.84L112.5-0.84 112.46-0.84Q112.32-0.81 112.22-0.81L112.22-0.81Q111.83-0.81 111.66-1.27L111.66-1.27 111.66-1.3Q111.48-2 112.08-2.21L112.08-2.21 112.11-2.21Q120.48-4.57 125.72-9.18L125.72-9.18Q122.52-10.69 118.93-11.78L118.93-11.78Q118.62-11.88 118.51-12.2L118.51-12.2 117.18-9.49Q116.89-8.96 116.33-9.21L116.33-9.21 116.3-9.25Q115.7-9.53 115.84-10.13L115.84-10.13 115.88-10.2Q118.34-14.77 120.16-19.72L120.16-19.72 110.95-19.72Q110.43-19.72 110.32-20.29L110.32-20.29 110.32-20.39Q110.32-21.02 110.81-21.13L110.81-21.13 110.95-21.16 120.66-21.16Q121.85-24.54 122.8-28.69L122.8-28.69 113.63-28.69Q112.61-28.69 112.29-27.77L112.29-27.77 112.18-27.25 112.18-23.98Q112.18-23.45 111.62-23.34L111.62-23.34 111.52-23.34Q110.88-23.34 110.78-23.84L110.78-23.84 110.74-23.87 110.74-27.25Q110.74-28.86 112.15-29.74L112.15-29.74Q112.82-30.13 113.63-30.13L113.63-30.13ZM174.52-17.12L174.69-28.3Q174.69-29.32 173.78-29.64L173.78-29.64 173.29-29.74 154.69-29.74Q152.96-25.42 150.96-22.04L150.96-22.04Q150.64-21.48 150.15-21.8L150.15-21.8 150.08-21.83Q149.48-22.15 149.7-22.68L149.7-22.68 149.73-22.75Q152.68-27.84 154.79-34.28L154.79-34.28Q154.97-34.8 155.53-34.73L155.53-34.73Q155.57-34.7 155.6-34.7L155.6-34.7Q156.23-34.49 156.2-33.96L156.2-33.96Q156.2-33.93 156.16-33.86L156.16-33.86 155.21-31.18 173.29-31.18Q174.9-31.18 175.75-29.78L175.75-29.78Q176.13-29.07 176.13-28.34L176.13-28.34 176.13-28.3Q176.06-14.17 175.57-8.47L175.57-8.47Q175.04-1.23 170.79-1.23L170.79-1.23 170.58-1.23Q170.19-1.23 169.84-1.3L169.84-1.3Q169.66-1.34 169.45-1.37L169.45-1.37Q168.89-1.44 168.86-1.97L168.86-1.97 168.86-2.04Q168.86-2.71 169.35-2.81L169.35-2.81 169.49-2.81Q173.14-2.43 173.99-7.31L173.99-7.31Q174.09-7.91 174.16-8.61L174.16-8.61Q174.34-10.65 174.52-15.93L174.52-15.93 174.16-15.82 164.36-15.82 164.36-8.89 169.21-8.89Q170.16-8.89 170.54-9.84L170.54-9.84 170.61-10.34 170.58-13.46Q170.58-13.99 171.11-14.1L171.11-14.1 171.21-14.1Q171.84-14.1 171.98-13.64L171.98-13.64Q172.02-13.57 172.02-13.54L172.02-13.54 172.02-13.5 172.05-10.34Q172.09-8.72 170.68-7.84L170.68-7.84Q169.98-7.45 169.21-7.45L169.21-7.45 158.03-7.45Q156.34-7.45 155.53-8.93L155.53-8.93Q155.14-9.53 155.14-10.3L155.14-10.3 155.14-13.64Q155.14-14.17 155.71-14.31L155.71-14.31 155.81-14.31Q156.45-14.31 156.55-13.78L156.55-13.78 156.59-13.75 156.59-10.34Q156.59-9.32 157.54-9L157.54-9 157.54-8.96 157.57-8.96 158.03-8.89 162.91-8.89 162.91-15.82 153.04-15.82Q152.51-15.82 152.4-16.35L152.4-16.35 152.4-16.45Q152.4-17.09 152.89-17.19L152.89-17.19 153.04-17.23 162.91-17.23 162.91-21.59 157.25-21.59Q156.09-19.93 154.13-18.42L154.13-18.42Q153.53-18.11 153.21-18.6L153.21-18.6Q152.79-19.3 153.28-19.65L153.28-19.65Q156.13-21.69 157.32-24.71L157.32-24.71Q157.5-25.28 158.1-25.14L158.1-25.14 158.13-25.14Q158.84-24.89 158.7-24.29L158.7-24.29 158.7-24.26 158.1-23.03 171.35-23.03Q171.91-23.03 172.02-22.5L172.02-22.5 172.02-22.39Q172.02-21.73 171.49-21.62L171.49-21.62 171.46-21.59 164.36-21.59 164.36-17.23 174.16-17.23 174.52-17.12ZM147.48-2.81Q147.2-2.29 146.6-2.6L146.6-2.6Q146-2.95 146.21-3.45L146.21-3.45 146.29-3.52Q149.2-8.58 152.44-14.7L152.44-14.7Q152.65-15.22 153.25-14.98L153.25-14.98 153.28-14.98Q153.88-14.66 153.77-14.17L153.77-14.17 153.7-14.13 153.7-14.1 153.67-14.03Q150.54-7.98 147.52-2.85L147.52-2.85 147.48-2.81ZM147.73-33.57Q147.27-34 147.66-34.45L147.66-34.45 147.69-34.52Q147.97-34.84 148.25-34.84L148.25-34.84Q148.46-34.84 148.64-34.7L148.64-34.7 148.68-34.66 148.71-34.63Q150.86-32.63 152.05-30.13L152.05-30.13Q152.33-29.6 151.77-29.32L151.77-29.32 151.73-29.32 151.7-29.29Q151.03-28.93 150.71-29.53L150.71-29.53 150.71-29.57Q149.63-31.75 147.73-33.57L147.73-33.57ZM145.2-24.82L145.2-24.82Q144.98-25.03 144.98-25.24L144.98-25.24Q144.98-25.45 145.16-25.66L145.16-25.66 145.2-25.73Q145.62-26.23 146.11-25.91L146.11-25.91 146.18-25.84Q148.43-23.73 149.73-20.95L149.73-20.95Q149.94-20.46 149.41-20.14L149.41-20.14 149.38-20.11Q148.75-19.83 148.43-20.36L148.43-20.36 148.39-20.43Q147.2-22.89 145.2-24.82Z" transform="translate(-0.8799999952316284, 34.880001068115234)"></path></g> <!----> <!----> <!----> <!----> <!----> <!----> <!----></g></g> <g data-gra="path-slogan" fill-rule="" class="tp-slogan iconsvg-slogansvg" fill="#000000" transform="translate(7.285003662109375,40.06999969482422)"><!----> <!----> <g transform="scale(1, 1)"><g transform="scale(1)"><path d="M8.06-6.05L8.06-6.05L6.94-6.05Q6.52-7.78 4.55-7.83L4.55-7.83Q1.83-7.69 1.73-4.36L1.73-4.36Q1.73-0.80 4.59-0.80L4.59-0.80Q6.56-0.84 7.03-3.19L7.03-3.19L8.16-3.19Q7.64 0.05 4.36 0.14L4.36 0.14Q0.61 0 0.52-4.31L0.52-4.31Q0.70-8.63 4.55-8.81L4.55-8.81Q7.59-8.72 8.06-6.05ZM10.69-5.06L15.19-5.06L15.19-8.58L16.36-8.58L16.36 0L15.19 0L15.19-3.98L10.69-3.98L10.69 0L9.52 0L9.52-8.58L10.69-8.58L10.69-5.06ZM19.45-1.03L24.61-1.03L24.61 0L18.28 0L18.28-8.58L24.52-8.58L24.52-7.59L19.45-7.59L19.45-4.92L24.14-4.92L24.14-3.89L19.45-3.89L19.45-1.03ZM27.52-8.58L31.83-1.64L31.83-8.58L32.95-8.58L32.95 0L31.64 0L27.28-6.94L27.23-6.94L27.23 0L26.11 0L26.11-8.58L27.52-8.58ZM41.16-3.61L38.53-3.61L38.53-4.59L42.28-4.59L42.28 0L41.53 0L41.25-1.08Q40.27 0.09 38.44 0.14L38.44 0.14Q36.70 0.14 35.77-0.75L35.77-0.75Q34.36-2.06 34.41-4.36L34.41-4.36Q34.73-8.63 38.48-8.81L38.48-8.81Q41.67-8.63 42.14-6L42.14-6L41.02-6Q40.55-7.78 38.44-7.83L38.44-7.83Q35.77-7.64 35.63-4.31L35.63-4.31Q35.63-0.75 38.48-0.75L38.48-0.75Q39.52-0.75 40.27-1.31L40.27-1.31Q41.20-2.06 41.16-3.61L41.16-3.61ZM47.58 0L44.11 0L44.11-8.58L47.63-8.58Q51.09-8.39 51.23-4.41L51.23-4.41Q51.05-0.09 47.58 0L47.58 0ZM47.44-7.64L45.28-7.64L45.28-0.98L47.53-0.98Q49.97-1.13 50.06-4.31L50.06-4.31Q50.02-7.55 47.44-7.64L47.44-7.64ZM58.36-3.19L58.36-8.58L59.53-8.58L59.53-3.05Q59.39 0.05 56.02 0.14L56.02 0.14Q52.88 0.05 52.73-2.86L52.73-2.86L52.73-8.58L53.91-8.58L53.91-3.19Q53.95-0.84 56.06-0.80L56.06-0.80Q58.36-0.84 58.36-3.19L58.36-3.19ZM65.81-5.06L70.31-5.06L70.31-8.58L71.48-8.58L71.48 0L70.31 0L70.31-3.98L65.81-3.98L65.81 0L64.64 0L64.64-8.58L65.81-8.58L65.81-5.06ZM78.94 0L78.09-2.48L74.63-2.48L73.73 0L72.56 0L75.80-8.58L77.11-8.58L80.20 0L78.94 0ZM76.36-7.31L75-3.52L77.67-3.52L76.41-7.31L76.36-7.31ZM88.03-4.27L88.03-4.27Q87.84-7.64 85.03-7.83L85.03-7.83Q82.17-7.69 82.03-4.27L82.03-4.27Q82.17-0.94 85.03-0.80L85.03-0.80Q87.84-0.98 88.03-4.27ZM89.20-4.27L89.20-4.27Q88.92 0 85.03 0.14L85.03 0.14Q81.09 0 80.81-4.27L80.81-4.27Q81.05-8.72 85.03-8.81L85.03-8.81Q88.92-8.67 89.20-4.27ZM91.27-5.53L90.38-5.53L90.38-8.58L91.27-8.58L91.27-5.53ZM98.48 0L97.64-2.48L94.17-2.48L93.28 0L92.11 0L95.34-8.58L96.66-8.58L99.75 0L98.48 0ZM95.91-7.31L94.55-3.52L97.22-3.52L95.95-7.31L95.91-7.31ZM102.19-8.58L106.50-1.64L106.50-8.58L107.63-8.58L107.63 0L106.31 0L101.95-6.94L101.91-6.94L101.91 0L100.78 0L100.78-8.58L102.19-8.58ZM114.94-7.59L112.03-7.59L112.03-8.58L118.97-8.58L118.97-7.59L116.06-7.59L116.06 0L114.94 0L114.94-7.59ZM125.67 0L124.83-2.48L121.36-2.48L120.47 0L119.30 0L122.53-8.58L123.84-8.58L126.94 0L125.67 0ZM123.09-7.31L121.73-3.52L124.41-3.52L123.14-7.31L123.09-7.31ZM134.77-4.27L134.77-4.27Q134.58-7.64 131.77-7.83L131.77-7.83Q128.91-7.69 128.77-4.27L128.77-4.27Q128.91-0.94 131.77-0.80L131.77-0.80Q134.58-0.98 134.77-4.27ZM135.94-4.27L135.94-4.27Q135.66 0 131.77 0.14L131.77 0.14Q127.83 0 127.55-4.27L127.55-4.27Q127.78-8.72 131.77-8.81L131.77-8.81Q135.66-8.67 135.94-4.27ZM140.53-7.64L138.47-7.64L138.47-4.97L140.53-4.97Q142.36-4.92 142.31-6.38L142.31-6.38Q142.31-7.64 140.53-7.64L140.53-7.64ZM141 0L137.30 0L137.30-8.58L141.09-8.58Q143.39-8.48 143.48-6.42L143.48-6.42Q143.48-5.16 142.36-4.64L142.36-4.64Q143.95-4.08 143.95-2.53L143.95-2.53Q143.81-0.09 141 0L141 0ZM140.72-3.98L138.47-3.98L138.47-0.98L140.95-0.98Q142.73-1.03 142.78-2.53L142.78-2.53Q142.78-3.98 140.72-3.98L140.72-3.98ZM150.94 0L150.09-2.48L146.63-2.48L145.73 0L144.56 0L147.80-8.58L149.11-8.58L152.20 0L150.94 0ZM148.36-7.31L147-3.52L149.67-3.52L148.41-7.31L148.36-7.31ZM160.03-4.27L160.03-4.27Q159.84-7.64 157.03-7.83L157.03-7.83Q154.17-7.69 154.03-4.27L154.03-4.27Q154.17-0.94 157.03-0.80L157.03-0.80Q159.84-0.98 160.03-4.27ZM161.20-4.27L161.20-4.27Q160.92 0 157.03 0.14L157.03 0.14Q153.09 0 152.81-4.27L152.81-4.27Q153.05-8.72 157.03-8.81L157.03-8.81Q160.92-8.67 161.20-4.27Z" transform="translate(-0.515625, 8.8125)"></path></g></g></g></g></g><defs v-gra="od"></defs></svg>